<svg width="15" height="15" viewBox="0 0 15 15" fill="none" xmlns="http://www.w3.org/2000/svg">
<path d="M0.701018 8.34172C0.52592 8.09379 0.432264 7.79755 0.43302 7.49404C0.433776 7.19053 0.528909 6.89477 0.705241 6.64771C0.888177 6.39727 1.14147 6.20733 1.43417 6.10321L3.36627 5.47429C3.85055 5.3129 4.29066 5.04115 4.65186 4.68049C5.01306 4.31984 5.28546 3.88016 5.44753 3.39618L6.08077 1.43906C6.18555 1.14971 6.37849 0.900518 6.63241 0.726604C6.88633 0.55269 7.18843 0.462822 7.49614 0.469659C7.80385 0.476495 8.10166 0.579694 8.3476 0.764715C8.59354 0.949735 8.77522 1.20725 8.86704 1.50097L9.49747 3.43557C9.6587 3.92003 9.93041 4.36036 10.2911 4.72176C10.6519 5.08316 11.0917 5.35572 11.5759 5.51791L13.5291 6.15386C13.8169 6.25627 14.0656 6.4458 14.2406 6.69609C14.4156 6.94638 14.5082 7.24499 14.5056 7.55037C14.5029 7.85575 14.4052 8.15271 14.2259 8.39995C14.0466 8.64719 13.7947 8.83241 13.5052 8.92984L11.5351 9.57283C11.0639 9.73424 10.6354 10.0004 10.282 10.3514C9.92855 10.7023 9.65935 11.1289 9.49466 11.5989L8.86563 13.5546C8.763 13.8422 8.57335 14.0907 8.32302 14.2656C8.07269 14.4405 7.77411 14.5332 7.46872 14.5307C7.16332 14.5282 6.86628 14.4308 6.61882 14.2518C6.37136 14.0728 6.18577 13.8213 6.08781 13.5321L5.4616 11.5989C5.29999 11.112 5.02634 10.6698 4.66266 10.3079C4.29898 9.94595 3.85543 9.67443 3.36768 9.51514L1.41025 8.87919C1.12318 8.77789 0.875511 8.58935 0.701018 8.34172Z" fill="#9547A5"/>
</svg>
