<svg width="15" height="15" viewBox="0 0 15 15" fill="none" xmlns="http://www.w3.org/2000/svg">
<path d="M0.62631 8.18157C0.451212 7.93364 0.357555 7.6374 0.358312 7.33389C0.359068 7.03038 0.454201 6.73461 0.630532 6.48756C0.813469 6.23712 1.06677 6.04717 1.35946 5.94306L3.29156 5.31414C3.77584 5.15275 4.21596 4.88099 4.57716 4.52034C4.93836 4.15968 5.21075 3.72 5.37282 3.23602L6.00606 1.27891C6.11084 0.989555 6.30378 0.740363 6.5577 0.566449C6.81163 0.392535 7.11372 0.302667 7.42143 0.309503C7.72914 0.31634 8.02695 0.41954 8.27289 0.60456C8.51883 0.78958 8.70051 1.04709 8.79233 1.34082L9.42276 3.27542C9.58399 3.75988 9.8557 4.20021 10.2164 4.56161C10.5772 4.923 11.017 5.19557 11.5012 5.35775L13.4544 5.99371C13.7422 6.09611 13.9908 6.28564 14.1658 6.53593C14.3409 6.78623 14.4335 7.08483 14.4309 7.39021C14.4282 7.69559 14.3305 7.99256 14.1512 8.2398C13.9719 8.48704 13.72 8.67225 13.4305 8.76968L11.4604 9.41268C10.9892 9.57409 10.5607 9.84029 10.2073 10.1912C9.85384 10.5422 9.58464 10.9687 9.41995 11.4387L8.79093 13.3944C8.68829 13.682 8.49864 13.9305 8.24831 14.1055C7.99799 14.2804 7.6994 14.373 7.39401 14.3706C7.08862 14.3681 6.79157 14.2706 6.54411 14.0916C6.29665 13.9127 6.11106 13.6611 6.0131 13.3719L5.38689 11.4387C5.22528 10.9518 4.95163 10.5096 4.58795 10.1477C4.22428 9.78579 3.78072 9.51427 3.29297 9.35499L1.33554 8.71903C1.04847 8.61773 0.800803 8.4292 0.62631 8.18157Z" fill="#358BB9"/>
</svg>
